<svg xmlns="http://www.w3.org/2000/svg" viewBox="19.99999999999997 171.6331136091115 535.0085992342778 231.73377278177702"> <g transform="rotate(0 135.85593149423454 287.5)"><svg xmlns="http://www.w3.org/2000/svg" id="Layer_2" dataName="Layer 2" viewBox="29.061620712280273 29.051620483398438 41.87675476074219 41.88676452636719" height="91.733772781777" width="91.71186298846915" y="241.6331136091115" x="89.99999999999997" preserveAspectRatio="xMinYMin" style="overflow: visible;"><path class="cls-3" d="M70.32,46.95c-1.1-2.72-3.84-4.43-6.78-4.43h-3.6c-1.36,0-2.47-1.1-2.47-2.47v-3.6c0-2.94-1.7-5.68-4.43-6.78-5.43-2.19-10.6,1.75-10.6,6.9v5.86h5.3c5.42,0,9.82,4.4,9.82,9.82v5.3h5.86c5.15,0,9.09-5.17,6.9-10.6Z" style="fill: #25ced1;"></path><path class="cls-2" d="M52.26,57.56c-5.42,0-9.82-4.4-9.82-9.82v-5.3h-5.86c-5.15,0-9.09,5.17-6.9,10.6,1.1,2.72,3.84,4.43,6.78,4.43h3.6c1.36,0,2.47,1.1,2.47,2.47v3.6c0,2.94,1.7,5.68,4.43,6.78,5.43,2.19,10.6-1.75,10.6-6.9v-5.86h-5.3Z" style="fill: #ff8b5c;"></path><path class="cls-1" d="M57.56,52.26c0-5.42-4.4-9.82-9.82-9.82h-5.3v5.3c0,5.42,4.4,9.82,9.82,9.82h5.3v-5.3Z" style="fill: #92ac96;"></path></svg></g> <g transform="rotate(0 342.53360838955115 305.6714287430837)"><svg y="297.3914280564382" viewBox="0.12999999523162842 3.049999952316284 284.9499816894531 16.560001373291016" x="200.05861754482459" height="16.560001373291016" width="284.9499816894531" xmlns="http://www.w3.org/2000/svg" style="overflow: visible;"><g fill="#07292a" fill-opacity="1" style=""><path d="M0.13 3.72L1.98 3.72L5.15 9.86L8.33 3.72L10.17 3.72L5.96 11.38L5.96 15.94L4.34 15.94L4.34 11.38L0.13 3.72ZM11.09 11.50L11.09 11.50L11.09 11.31Q11.09 10.33 11.38 9.48Q11.66 8.64 12.20 8.02Q12.73 7.39 13.50 7.04Q14.26 6.69 15.21 6.69L15.21 6.69Q16.17 6.69 16.93 7.04Q17.70 7.39 18.24 8.02Q18.78 8.64 19.07 9.48Q19.35 10.33 19.35 11.31L19.35 11.31L19.35 11.50Q19.35 12.48 19.07 13.32Q18.78 14.16 18.24 14.79Q17.70 15.41 16.94 15.76Q16.18 16.11 15.23 16.11L15.23 16.11Q14.27 16.11 13.51 15.76Q12.74 15.41 12.20 14.79Q11.66 14.16 11.38 13.32Q11.09 12.48 11.09 11.50ZM12.64 11.31L12.64 11.31L12.64 11.50Q12.64 12.18 12.80 12.78Q12.96 13.38 13.28 13.84Q13.61 14.30 14.09 14.57Q14.58 14.83 15.23 14.83L15.23 14.83Q15.86 14.83 16.35 14.57Q16.83 14.30 17.15 13.84Q17.47 13.38 17.63 12.78Q17.79 12.18 17.79 11.50L17.79 11.50L17.79 11.31Q17.79 10.64 17.63 10.04Q17.47 9.44 17.14 8.97Q16.82 8.51 16.34 8.24Q15.86 7.97 15.21 7.97L15.21 7.97Q14.57 7.97 14.09 8.24Q13.61 8.51 13.28 8.97Q12.96 9.44 12.80 10.04Q12.64 10.64 12.64 11.31ZM26.93 15.94L26.85 13.84L26.85 6.86L28.41 6.86L28.41 15.94L26.93 15.94ZM27.15 11.93L27.15 11.93L27.79 11.91Q27.79 12.82 27.60 13.59Q27.42 14.35 27.00 14.92Q26.58 15.48 25.90 15.79Q25.22 16.11 24.24 16.11L24.24 16.11Q23.58 16.11 23.03 15.91Q22.48 15.72 22.09 15.32Q21.69 14.92 21.48 14.27Q21.27 13.62 21.27 12.72L21.27 12.72L21.27 6.86L22.82 6.86L22.82 12.73Q22.82 13.35 22.96 13.75Q23.10 14.14 23.33 14.37Q23.57 14.61 23.87 14.70Q24.17 14.79 24.49 14.79L24.49 14.79Q25.48 14.79 26.06 14.41Q26.64 14.03 26.89 13.38Q27.15 12.73 27.15 11.93ZM32.28 6.86L32.32 8.29L32.32 15.94L30.77 15.94L30.77 6.86L32.28 6.86ZM35.16 6.81L35.16 6.81L35.15 8.25Q34.96 8.21 34.79 8.20Q34.61 8.19 34.40 8.19L34.40 8.19Q33.86 8.19 33.45 8.36Q33.04 8.52 32.75 8.83Q32.47 9.13 32.30 9.54Q32.14 9.96 32.09 10.45L32.09 10.45L31.65 10.70Q31.65 9.88 31.82 9.16Q31.98 8.44 32.32 7.88Q32.67 7.32 33.20 7.01Q33.73 6.69 34.47 6.69L34.47 6.69Q34.64 6.69 34.86 6.73Q35.07 6.77 35.16 6.81ZM40.85 3.05L42.41 3.05L42.41 15.94L40.85 15.94L40.85 3.05ZM42.04 11.06L42.04 11.06L41.39 11.03Q41.40 10.10 41.67 9.31Q41.94 8.51 42.42 7.93Q42.91 7.34 43.59 7.02Q44.26 6.69 45.08 6.69L45.08 6.69Q45.75 6.69 46.29 6.87Q46.83 7.06 47.21 7.45Q47.59 7.84 47.79 8.47Q47.99 9.09 47.99 9.99L47.99 9.99L47.99 15.94L46.43 15.94L46.43 9.97Q46.43 9.26 46.22 8.83Q46.01 8.40 45.61 8.20Q45.21 8.00 44.62 8.00L44.62 8.00Q44.04 8.00 43.57 8.25Q43.09 8.49 42.75 8.92Q42.42 9.35 42.23 9.89Q42.04 10.44 42.04 11.06ZM54.08 16.11L54.08 16.11Q53.14 16.11 52.37 15.78Q51.60 15.46 51.05 14.87Q50.50 14.29 50.21 13.48Q49.91 12.68 49.91 11.72L49.91 11.72L49.91 11.37Q49.91 10.26 50.24 9.39Q50.57 8.52 51.13 7.92Q51.69 7.32 52.41 7.00Q53.12 6.69 53.88 6.69L53.88 6.69Q54.86 6.69 55.56 7.03Q56.27 7.37 56.73 7.97Q57.18 8.57 57.40 9.37Q57.62 10.18 57.62 11.14L57.62 11.14L57.62 11.84L50.84 11.84L50.84 10.57L56.06 10.57L56.06 10.45Q56.03 9.85 55.82 9.28Q55.60 8.71 55.14 8.34Q54.68 7.97 53.88 7.97L53.88 7.97Q53.35 7.97 52.91 8.19Q52.47 8.41 52.15 8.85Q51.83 9.29 51.65 9.92Q51.48 10.55 51.48 11.37L51.48 11.37L51.48 11.72Q51.48 12.37 51.66 12.93Q51.84 13.50 52.18 13.93Q52.53 14.35 53.03 14.60Q53.53 14.84 54.17 14.84L54.17 14.84Q54.99 14.84 55.56 14.50Q56.13 14.17 56.56 13.61L56.56 13.61L57.50 14.35Q57.21 14.80 56.75 15.20Q56.30 15.60 55.64 15.86Q54.98 16.11 54.08 16.11ZM64.78 14.39L64.78 14.39L64.78 9.71Q64.78 9.18 64.57 8.78Q64.35 8.38 63.92 8.16Q63.50 7.94 62.87 7.94L62.87 7.94Q62.28 7.94 61.84 8.15Q61.40 8.35 61.15 8.67Q60.90 9.00 60.90 9.38L60.90 9.38L59.35 9.38Q59.35 8.89 59.60 8.41Q59.86 7.94 60.33 7.55Q60.80 7.16 61.47 6.93Q62.14 6.69 62.96 6.69L62.96 6.69Q63.95 6.69 64.71 7.03Q65.47 7.37 65.90 8.04Q66.33 8.72 66.33 9.73L66.33 9.73L66.33 13.96Q66.33 14.41 66.41 14.92Q66.49 15.44 66.65 15.81L66.65 15.81L66.65 15.94L65.03 15.94Q64.91 15.67 64.85 15.22Q64.78 14.77 64.78 14.39ZM63.25 10.44L65.05 10.44L65.07 11.53L63.50 11.53Q62.83 11.53 62.31 11.63Q61.79 11.74 61.44 11.95Q61.09 12.16 60.90 12.47Q60.72 12.78 60.72 13.20L60.72 13.20Q60.72 13.63 60.91 13.98Q61.11 14.34 61.50 14.54Q61.89 14.75 62.46 14.75L62.46 14.75Q63.17 14.75 63.71 14.45Q64.26 14.14 64.58 13.71Q64.91 13.27 64.93 12.86L64.93 12.86L65.59 13.61Q65.54 13.96 65.28 14.39Q65.02 14.82 64.58 15.21Q64.15 15.60 63.56 15.85Q62.97 16.11 62.23 16.11L62.23 16.11Q61.31 16.11 60.62 15.75Q59.92 15.39 59.54 14.78Q59.16 14.17 59.16 13.41L59.16 13.41Q59.16 12.68 59.44 12.13Q59.73 11.57 60.27 11.20Q60.80 10.82 61.56 10.63Q62.31 10.44 63.25 10.44L63.25 10.44ZM68.90 3.05L70.46 3.05L70.46 15.94L68.90 15.94L68.90 3.05ZM73.08 6.86L74.64 6.86L74.64 15.94L73.08 15.94L73.08 6.86ZM72.96 4.45L72.96 4.45Q72.96 4.08 73.19 3.82Q73.42 3.56 73.87 3.56L73.87 3.56Q74.32 3.56 74.56 3.82Q74.80 4.08 74.80 4.45L74.80 4.45Q74.80 4.82 74.56 5.07Q74.32 5.33 73.87 5.33L73.87 5.33Q73.42 5.33 73.19 5.07Q72.96 4.82 72.96 4.45ZM78.60 6.86L78.68 8.80L78.68 15.94L77.13 15.94L77.13 6.86L78.60 6.86ZM78.31 11.06L78.31 11.06L77.67 11.03Q77.67 10.10 77.94 9.31Q78.21 8.51 78.70 7.93Q79.18 7.34 79.86 7.02Q80.54 6.69 81.36 6.69L81.36 6.69Q82.03 6.69 82.57 6.87Q83.10 7.06 83.48 7.45Q83.87 7.84 84.07 8.47Q84.27 9.09 84.27 9.99L84.27 9.99L84.27 15.94L82.71 15.94L82.71 9.97Q82.71 9.26 82.50 8.83Q82.29 8.40 81.89 8.20Q81.48 8.00 80.90 8.00L80.90 8.00Q80.32 8.00 79.84 8.25Q79.37 8.49 79.03 8.92Q78.69 9.35 78.50 9.89Q78.31 10.44 78.31 11.06ZM92.36 8.86L92.50 6.86L93.91 6.86L93.91 15.75Q93.91 16.95 93.42 17.79Q92.93 18.64 92.07 19.08Q91.20 19.52 90.07 19.52L90.07 19.52Q89.60 19.52 88.96 19.37Q88.33 19.23 87.72 18.88Q87.11 18.53 86.70 17.94L86.70 17.94L87.51 17.02Q88.09 17.71 88.71 17.98Q89.34 18.25 89.95 18.25L89.95 18.25Q90.69 18.25 91.22 17.97Q91.76 17.69 92.06 17.15Q92.36 16.61 92.36 15.82L92.36 15.82L92.36 8.86ZM86.25 11.50L86.25 11.50L86.25 11.33Q86.25 10.28 86.50 9.43Q86.74 8.58 87.21 7.97Q87.67 7.36 88.34 7.03Q89.00 6.69 89.83 6.69L89.83 6.69Q90.69 6.69 91.33 6.99Q91.97 7.29 92.42 7.86Q92.87 8.42 93.13 9.22Q93.39 10.02 93.49 11.02L93.49 11.02L93.49 11.80Q93.40 12.79 93.13 13.59Q92.87 14.39 92.42 14.95Q91.97 15.51 91.32 15.81Q90.68 16.11 89.81 16.11L89.81 16.11Q89.00 16.11 88.34 15.76Q87.68 15.42 87.21 14.80Q86.74 14.18 86.50 13.33Q86.25 12.49 86.25 11.50ZM87.80 11.33L87.80 11.33L87.80 11.50Q87.80 12.18 87.94 12.78Q88.08 13.37 88.37 13.83Q88.66 14.28 89.11 14.53Q89.56 14.79 90.19 14.79L90.19 14.79Q90.96 14.79 91.47 14.46Q91.97 14.14 92.27 13.60Q92.56 13.06 92.73 12.43L92.73 12.43L92.73 10.41Q92.64 9.95 92.45 9.52Q92.26 9.09 91.97 8.75Q91.67 8.41 91.23 8.20Q90.79 8.00 90.21 8.00L90.21 8.00Q89.57 8.00 89.11 8.27Q88.66 8.53 88.37 8.99Q88.08 9.45 87.94 10.05Q87.80 10.65 87.80 11.33ZM96.29 15.12L96.29 15.12Q96.29 14.72 96.54 14.45Q96.78 14.18 97.25 14.18L97.25 14.18Q97.72 14.18 97.97 14.45Q98.22 14.72 98.22 15.12L98.22 15.12Q98.22 15.50 97.97 15.77Q97.72 16.04 97.25 16.04L97.25 16.04Q96.78 16.04 96.54 15.77Q96.29 15.50 96.29 15.12ZM104.00 3.72L105.85 3.72L109.02 9.86L112.20 3.72L114.04 3.72L109.83 11.38L109.83 15.94L108.21 15.94L108.21 11.38L104.00 3.72ZM114.96 11.50L114.96 11.50L114.96 11.31Q114.96 10.33 115.25 9.48Q115.53 8.64 116.07 8.02Q116.61 7.39 117.37 7.04Q118.13 6.69 119.08 6.69L119.08 6.69Q120.04 6.69 120.81 7.04Q121.57 7.39 122.12 8.02Q122.66 8.64 122.94 9.48Q123.23 10.33 123.23 11.31L123.23 11.31L123.23 11.50Q123.23 12.48 122.94 13.32Q122.66 14.16 122.12 14.79Q121.57 15.41 120.82 15.76Q120.06 16.11 119.10 16.11L119.10 16.11Q118.14 16.11 117.38 15.76Q116.62 15.41 116.08 14.79Q115.53 14.16 115.25 13.32Q114.96 12.48 114.96 11.50ZM116.52 11.31L116.52 11.31L116.52 11.50Q116.52 12.18 116.68 12.78Q116.83 13.38 117.16 13.84Q117.48 14.30 117.97 14.57Q118.45 14.83 119.10 14.83L119.10 14.83Q119.74 14.83 120.22 14.57Q120.70 14.30 121.02 13.84Q121.34 13.38 121.50 12.78Q121.67 12.18 121.67 11.50L121.67 11.50L121.67 11.31Q121.67 10.64 121.50 10.04Q121.34 9.44 121.02 8.97Q120.69 8.51 120.21 8.24Q119.73 7.97 119.08 7.97L119.08 7.97Q118.45 7.97 117.96 8.24Q117.48 8.51 117.16 8.97Q116.83 9.44 116.68 10.04Q116.52 10.64 116.52 11.31ZM130.80 15.94L130.73 13.84L130.73 6.86L132.29 6.86L132.29 15.94L130.80 15.94ZM131.02 11.93L131.02 11.93L131.67 11.91Q131.67 12.82 131.48 13.59Q131.29 14.35 130.87 14.92Q130.45 15.48 129.77 15.79Q129.09 16.11 128.12 16.11L128.12 16.11Q127.46 16.11 126.91 15.91Q126.36 15.72 125.96 15.32Q125.57 14.92 125.35 14.27Q125.14 13.62 125.14 12.72L125.14 12.72L125.14 6.86L126.69 6.86L126.69 12.73Q126.69 13.35 126.83 13.75Q126.97 14.14 127.21 14.37Q127.45 14.61 127.74 14.70Q128.04 14.79 128.36 14.79L128.36 14.79Q129.35 14.79 129.93 14.41Q130.51 14.03 130.76 13.38Q131.02 12.73 131.02 11.93ZM136.15 6.86L136.20 8.29L136.20 15.94L134.64 15.94L134.64 6.86L136.15 6.86ZM139.03 6.81L139.03 6.81L139.02 8.25Q138.83 8.21 138.66 8.20Q138.49 8.19 138.27 8.19L138.27 8.19Q137.73 8.19 137.32 8.36Q136.91 8.52 136.62 8.83Q136.34 9.13 136.18 9.54Q136.01 9.96 135.96 10.45L135.96 10.45L135.53 10.70Q135.53 9.88 135.69 9.16Q135.85 8.44 136.20 7.88Q136.54 7.32 137.07 7.01Q137.61 6.69 138.34 6.69L138.34 6.69Q138.51 6.69 138.73 6.73Q138.95 6.77 139.03 6.81ZM150.58 15.94L150.45 14.18L150.45 3.05L152.01 3.05L152.01 15.94L150.58 15.94ZM144.34 11.50L144.34 11.50L144.34 11.33Q144.34 10.28 144.60 9.43Q144.85 8.58 145.33 7.97Q145.80 7.36 146.46 7.03Q147.12 6.69 147.93 6.69L147.93 6.69Q148.79 6.69 149.43 6.99Q150.07 7.29 150.52 7.86Q150.97 8.42 151.23 9.22Q151.49 10.02 151.59 11.02L151.59 11.02L151.59 11.80Q151.50 12.79 151.23 13.59Q150.97 14.39 150.52 14.95Q150.07 15.51 149.43 15.81Q148.78 16.11 147.92 16.11L147.92 16.11Q147.12 16.11 146.46 15.76Q145.80 15.42 145.33 14.80Q144.85 14.18 144.60 13.33Q144.34 12.49 144.34 11.50ZM145.90 11.33L145.90 11.33L145.90 11.50Q145.90 12.18 146.04 12.78Q146.18 13.37 146.47 13.83Q146.77 14.28 147.22 14.53Q147.67 14.79 148.30 14.79L148.30 14.79Q149.07 14.79 149.57 14.46Q150.07 14.14 150.37 13.60Q150.68 13.06 150.84 12.43L150.84 12.43L150.84 10.41Q150.74 9.95 150.55 9.52Q150.37 9.09 150.07 8.75Q149.77 8.41 149.34 8.20Q148.91 8.00 148.32 8.00L148.32 8.00Q147.68 8.00 147.22 8.27Q146.77 8.53 146.47 8.99Q146.18 9.45 146.04 10.05Q145.90 10.65 145.90 11.33ZM159.77 14.39L159.77 14.39L159.77 9.71Q159.77 9.18 159.56 8.78Q159.34 8.38 158.91 8.16Q158.49 7.94 157.86 7.94L157.86 7.94Q157.27 7.94 156.83 8.15Q156.39 8.35 156.14 8.67Q155.89 9.00 155.89 9.38L155.89 9.38L154.34 9.38Q154.34 8.89 154.59 8.41Q154.85 7.94 155.32 7.55Q155.79 7.16 156.46 6.93Q157.13 6.69 157.95 6.69L157.95 6.69Q158.94 6.69 159.70 7.03Q160.46 7.37 160.89 8.04Q161.32 8.72 161.32 9.73L161.32 9.73L161.32 13.96Q161.32 14.41 161.40 14.92Q161.48 15.44 161.64 15.81L161.64 15.81L161.64 15.94L160.02 15.94Q159.90 15.67 159.84 15.22Q159.77 14.77 159.77 14.39ZM158.23 10.44L160.04 10.44L160.06 11.53L158.49 11.53Q157.82 11.53 157.30 11.63Q156.78 11.74 156.43 11.95Q156.08 12.16 155.89 12.47Q155.71 12.78 155.71 13.20L155.71 13.20Q155.71 13.63 155.90 13.98Q156.10 14.34 156.49 14.54Q156.88 14.75 157.45 14.75L157.45 14.75Q158.16 14.75 158.70 14.45Q159.25 14.14 159.57 13.71Q159.90 13.27 159.92 12.86L159.92 12.86L160.58 13.61Q160.52 13.96 160.26 14.39Q160.00 14.82 159.57 15.21Q159.14 15.60 158.55 15.85Q157.96 16.11 157.22 16.11L157.22 16.11Q156.30 16.11 155.60 15.75Q154.91 15.39 154.53 14.78Q154.15 14.17 154.15 13.41L154.15 13.41Q154.15 12.68 154.43 12.13Q154.72 11.57 155.26 11.20Q155.79 10.82 156.55 10.63Q157.30 10.44 158.23 10.44L158.23 10.44ZM162.66 6.86L167.56 6.86L167.56 8.05L162.66 8.05L162.66 6.86ZM164.32 13.68L164.32 4.66L165.87 4.66L165.87 13.69Q165.87 14.15 166.01 14.39Q166.15 14.62 166.38 14.70Q166.61 14.77 166.87 14.77L166.87 14.77Q167.06 14.77 167.27 14.74Q167.49 14.70 167.60 14.67L167.60 14.67L167.61 15.94Q167.42 16.00 167.12 16.05Q166.82 16.11 166.41 16.11L166.41 16.11Q165.84 16.11 165.36 15.88Q164.88 15.65 164.60 15.12Q164.32 14.59 164.32 13.68L164.32 13.68ZM174.74 14.39L174.74 14.39L174.74 9.71Q174.74 9.18 174.52 8.78Q174.31 8.38 173.88 8.16Q173.45 7.94 172.82 7.94L172.82 7.94Q172.24 7.94 171.80 8.15Q171.36 8.35 171.11 8.67Q170.86 9.00 170.86 9.38L170.86 9.38L169.31 9.38Q169.31 8.89 169.56 8.41Q169.81 7.94 170.29 7.55Q170.76 7.16 171.43 6.93Q172.09 6.69 172.92 6.69L172.92 6.69Q173.91 6.69 174.66 7.03Q175.42 7.37 175.86 8.04Q176.29 8.72 176.29 9.73L176.29 9.73L176.29 13.96Q176.29 14.41 176.37 14.92Q176.45 15.44 176.61 15.81L176.61 15.81L176.61 15.94L174.99 15.94Q174.87 15.67 174.80 15.22Q174.74 14.77 174.74 14.39ZM173.20 10.44L175.00 10.44L175.02 11.53L173.45 11.53Q172.79 11.53 172.27 11.63Q171.75 11.74 171.40 11.95Q171.04 12.16 170.86 12.47Q170.68 12.78 170.68 13.20L170.68 13.20Q170.68 13.63 170.87 13.98Q171.06 14.34 171.45 14.54Q171.84 14.75 172.41 14.75L172.41 14.75Q173.13 14.75 173.67 14.45Q174.22 14.14 174.54 13.71Q174.86 13.27 174.89 12.86L174.89 12.86L175.55 13.61Q175.49 13.96 175.23 14.39Q174.97 14.82 174.54 15.21Q174.11 15.60 173.52 15.85Q172.92 16.11 172.19 16.11L172.19 16.11Q171.26 16.11 170.57 15.75Q169.88 15.39 169.50 14.78Q169.12 14.17 169.12 13.41L169.12 13.41Q169.12 12.68 169.40 12.13Q169.69 11.57 170.22 11.20Q170.76 10.82 171.51 10.63Q172.27 10.44 173.20 10.44L173.20 10.44ZM178.75 15.12L178.75 15.12Q178.75 14.72 179.00 14.45Q179.25 14.18 179.72 14.18L179.72 14.18Q180.19 14.18 180.44 14.45Q180.68 14.72 180.68 15.12L180.68 15.12Q180.68 15.50 180.44 15.77Q180.19 16.04 179.72 16.04L179.72 16.04Q179.25 16.04 179.00 15.77Q178.75 15.50 178.75 15.12ZM186.46 3.72L188.32 3.72L191.49 9.86L194.67 3.72L196.51 3.72L192.29 11.38L192.29 15.94L190.68 15.94L190.68 11.38L186.46 3.72ZM197.43 11.50L197.43 11.50L197.43 11.31Q197.43 10.33 197.71 9.48Q198.00 8.64 198.54 8.02Q199.07 7.39 199.84 7.04Q200.60 6.69 201.55 6.69L201.55 6.69Q202.50 6.69 203.27 7.04Q204.04 7.39 204.58 8.02Q205.12 8.64 205.41 9.48Q205.69 10.33 205.69 11.31L205.69 11.31L205.69 11.50Q205.69 12.48 205.41 13.32Q205.12 14.16 204.58 14.79Q204.04 15.41 203.28 15.76Q202.52 16.11 201.56 16.11L201.56 16.11Q200.61 16.11 199.84 15.76Q199.08 15.41 198.54 14.79Q198.00 14.16 197.71 13.32Q197.43 12.48 197.43 11.50ZM198.98 11.31L198.98 11.31L198.98 11.50Q198.98 12.18 199.14 12.78Q199.30 13.38 199.62 13.84Q199.95 14.30 200.43 14.57Q200.92 14.83 201.56 14.83L201.56 14.83Q202.20 14.83 202.68 14.57Q203.17 14.30 203.49 13.84Q203.80 13.38 203.97 12.78Q204.13 12.18 204.13 11.50L204.13 11.50L204.13 11.31Q204.13 10.64 203.97 10.04Q203.80 9.44 203.48 8.97Q203.16 8.51 202.68 8.24Q202.19 7.97 201.55 7.97L201.55 7.97Q200.91 7.97 200.43 8.24Q199.95 8.51 199.62 8.97Q199.30 9.44 199.14 10.04Q198.98 10.64 198.98 11.31ZM213.27 15.94L213.19 13.84L213.19 6.86L214.75 6.86L214.75 15.94L213.27 15.94ZM213.48 11.93L213.48 11.93L214.13 11.91Q214.13 12.82 213.94 13.59Q213.75 14.35 213.33 14.92Q212.91 15.48 212.24 15.79Q211.56 16.11 210.58 16.11L210.58 16.11Q209.92 16.11 209.37 15.91Q208.82 15.72 208.43 15.32Q208.03 14.92 207.82 14.27Q207.60 13.62 207.60 12.72L207.60 12.72L207.60 6.86L209.16 6.86L209.16 12.73Q209.16 13.35 209.29 13.75Q209.43 14.14 209.67 14.37Q209.91 14.61 210.21 14.70Q210.51 14.79 210.83 14.79L210.83 14.79Q211.82 14.79 212.39 14.41Q212.97 14.03 213.23 13.38Q213.48 12.73 213.48 11.93ZM218.62 6.86L218.66 8.29L218.66 15.94L217.11 15.94L217.11 6.86L218.62 6.86ZM221.50 6.81L221.50 6.81L221.49 8.25Q221.30 8.21 221.12 8.20Q220.95 8.19 220.73 8.19L220.73 8.19Q220.20 8.19 219.79 8.36Q219.37 8.52 219.09 8.83Q218.80 9.13 218.64 9.54Q218.48 9.96 218.43 10.45L218.43 10.45L217.99 10.70Q217.99 9.88 218.15 9.16Q218.32 8.44 218.66 7.88Q219.00 7.32 219.54 7.01Q220.07 6.69 220.81 6.69L220.81 6.69Q220.98 6.69 221.19 6.73Q221.41 6.77 221.50 6.81ZM227.23 17.02L227.23 6.86L228.80 6.86L228.80 17.02Q228.80 17.85 228.53 18.43Q228.27 19.01 227.74 19.31Q227.22 19.61 226.42 19.61L226.42 19.61Q226.21 19.61 225.93 19.56Q225.65 19.52 225.46 19.46L225.46 19.46L225.46 18.21Q225.62 18.25 225.83 18.27Q226.03 18.29 226.18 18.29L226.18 18.29Q226.52 18.29 226.76 18.16Q226.99 18.04 227.11 17.76Q227.23 17.48 227.23 17.02L227.23 17.02ZM227.08 4.45L227.08 4.45Q227.08 4.08 227.31 3.82Q227.55 3.56 227.99 3.56L227.99 3.56Q228.44 3.56 228.68 3.82Q228.91 4.08 228.91 4.45L228.91 4.45Q228.91 4.82 228.68 5.07Q228.44 5.33 227.99 5.33L227.99 5.33Q227.55 5.33 227.31 5.07Q227.08 4.82 227.08 4.45ZM230.89 11.50L230.89 11.50L230.89 11.31Q230.89 10.33 231.18 9.48Q231.46 8.64 232.00 8.02Q232.54 7.39 233.30 7.04Q234.06 6.69 235.01 6.69L235.01 6.69Q235.97 6.69 236.74 7.04Q237.50 7.39 238.04 8.02Q238.59 8.64 238.87 9.48Q239.16 10.33 239.16 11.31L239.16 11.31L239.16 11.50Q239.16 12.48 238.87 13.32Q238.59 14.16 238.04 14.79Q237.50 15.41 236.74 15.76Q235.98 16.11 235.03 16.11L235.03 16.11Q234.07 16.11 233.31 15.76Q232.54 15.41 232.00 14.79Q231.46 14.16 231.18 13.32Q230.89 12.48 230.89 11.50ZM232.44 11.31L232.44 11.31L232.44 11.50Q232.44 12.18 232.60 12.78Q232.76 13.38 233.09 13.84Q233.41 14.30 233.90 14.57Q234.38 14.83 235.03 14.83L235.03 14.83Q235.67 14.83 236.15 14.57Q236.63 14.30 236.95 13.84Q237.27 13.38 237.43 12.78Q237.60 12.18 237.60 11.50L237.60 11.50L237.60 11.31Q237.60 10.64 237.43 10.04Q237.27 9.44 236.95 8.97Q236.62 8.51 236.14 8.24Q235.66 7.97 235.01 7.97L235.01 7.97Q234.37 7.97 233.89 8.24Q233.41 8.51 233.09 8.97Q232.76 9.44 232.60 10.04Q232.44 10.64 232.44 11.31ZM246.73 15.94L246.66 13.84L246.66 6.86L248.22 6.86L248.22 15.94L246.73 15.94ZM246.95 11.93L246.95 11.93L247.59 11.91Q247.59 12.82 247.41 13.59Q247.22 14.35 246.80 14.92Q246.38 15.48 245.70 15.79Q245.02 16.11 244.05 16.11L244.05 16.11Q243.38 16.11 242.83 15.91Q242.28 15.72 241.89 15.32Q241.50 14.92 241.28 14.27Q241.07 13.62 241.07 12.72L241.07 12.72L241.07 6.86L242.62 6.86L242.62 12.73Q242.62 13.35 242.76 13.75Q242.90 14.14 243.14 14.37Q243.38 14.61 243.67 14.70Q243.97 14.79 244.29 14.79L244.29 14.79Q245.28 14.79 245.86 14.41Q246.44 14.03 246.69 13.38Q246.95 12.73 246.95 11.93ZM252.08 6.86L252.13 8.29L252.13 15.94L250.57 15.94L250.57 6.86L252.08 6.86ZM254.96 6.81L254.96 6.81L254.95 8.25Q254.76 8.21 254.59 8.20Q254.42 8.19 254.20 8.19L254.20 8.19Q253.66 8.19 253.25 8.36Q252.84 8.52 252.55 8.83Q252.27 9.13 252.10 9.54Q251.94 9.96 251.89 10.45L251.89 10.45L251.45 10.70Q251.45 9.88 251.62 9.16Q251.78 8.44 252.13 7.88Q252.47 7.32 253.00 7.01Q253.53 6.69 254.27 6.69L254.27 6.69Q254.44 6.69 254.66 6.73Q254.88 6.77 254.96 6.81ZM257.86 6.86L257.95 8.80L257.95 15.94L256.40 15.94L256.40 6.86L257.86 6.86ZM257.58 11.06L257.58 11.06L256.93 11.03Q256.94 10.10 257.21 9.31Q257.48 8.51 257.96 7.93Q258.45 7.34 259.13 7.02Q259.80 6.69 260.62 6.69L260.62 6.69Q261.29 6.69 261.83 6.87Q262.37 7.06 262.75 7.45Q263.13 7.84 263.33 8.47Q263.53 9.09 263.53 9.99L263.53 9.99L263.53 15.94L261.97 15.94L261.97 9.97Q261.97 9.26 261.76 8.83Q261.55 8.40 261.15 8.20Q260.75 8.00 260.16 8.00L260.16 8.00Q259.58 8.00 259.11 8.25Q258.63 8.49 258.30 8.92Q257.96 9.35 257.77 9.89Q257.58 10.44 257.58 11.06ZM269.65 16.11L269.65 16.11Q268.70 16.11 267.93 15.78Q267.17 15.46 266.62 14.87Q266.07 14.29 265.77 13.48Q265.48 12.68 265.48 11.72L265.48 11.72L265.48 11.37Q265.48 10.26 265.81 9.39Q266.13 8.52 266.70 7.92Q267.26 7.32 267.97 7.00Q268.69 6.69 269.45 6.69L269.45 6.69Q270.42 6.69 271.13 7.03Q271.84 7.37 272.29 7.97Q272.75 8.57 272.96 9.37Q273.18 10.18 273.18 11.14L273.18 11.14L273.18 11.84L266.40 11.84L266.40 10.57L271.63 10.57L271.63 10.45Q271.60 9.85 271.38 9.28Q271.17 8.71 270.71 8.34Q270.25 7.97 269.45 7.97L269.45 7.97Q268.92 7.97 268.48 8.19Q268.03 8.41 267.71 8.85Q267.39 9.29 267.22 9.92Q267.04 10.55 267.04 11.37L267.04 11.37L267.04 11.72Q267.04 12.37 267.22 12.93Q267.40 13.50 267.75 13.93Q268.10 14.35 268.60 14.60Q269.10 14.84 269.73 14.84L269.73 14.84Q270.56 14.84 271.13 14.50Q271.70 14.17 272.12 13.61L272.12 13.61L273.06 14.35Q272.77 14.80 272.32 15.20Q271.86 15.60 271.21 15.86Q270.55 16.11 269.65 16.11ZM276.90 16.76L277.54 15.00L280.07 6.86L281.73 6.86L278.09 17.34Q277.96 17.68 277.76 18.07Q277.55 18.46 277.23 18.81Q276.91 19.16 276.47 19.38Q276.02 19.61 275.40 19.61L275.40 19.61Q275.21 19.61 274.93 19.55Q274.64 19.50 274.52 19.47L274.52 19.47L274.52 18.21Q274.58 18.22 274.73 18.23Q274.88 18.25 274.93 18.25L274.93 18.25Q275.46 18.25 275.83 18.11Q276.20 17.97 276.46 17.65Q276.71 17.32 276.90 16.76L276.90 16.76ZM274.00 6.86L275.69 6.86L278.05 13.91L278.45 15.54L277.33 16.12L274.00 6.86ZM283.15 15.12L283.15 15.12Q283.15 14.72 283.40 14.45Q283.64 14.18 284.11 14.18L284.11 14.18Q284.58 14.18 284.83 14.45Q285.08 14.72 285.08 15.12L285.08 15.12Q285.08 15.50 284.83 15.77Q284.58 16.04 284.11 16.04L284.11 16.04Q283.64 16.04 283.40 15.77Q283.15 15.50 283.15 15.12Z" transform="translate(0, 0)"></path></g></svg></g> <g transform="rotate(0 342.5286187655277 274.8169436080651)"><svg y="261.0569443328576" viewBox="2.6500000953674316 9.600000381469727 284.94000244140625 27.51999855041504" x="200.05861754482459" height="27.51999855041504" width="284.94000244140625" xmlns="http://www.w3.org/2000/svg" style="overflow: visible;"><g fill="#07292a" fill-opacity="1" style=""><path d="M27.82 36.59L20.34 36.59L20.34 10.13L27.82 10.13L27.82 36.59ZM10.13 36.59L2.65 36.59L2.65 10.13L10.13 10.13L10.13 36.59ZM20.87 26.27L9.60 26.27L9.60 20.07L20.87 20.07L20.87 26.27ZM54.36 36.59L33.11 36.59L33.11 10.13L53.87 10.13L53.87 15.91L40.52 15.91L40.52 30.81L54.36 30.81L54.36 36.59ZM52.28 25.97L39.99 25.97L39.99 20.37L52.28 20.37L52.28 25.97ZM62.98 36.59L55.34 36.59L67.02 10.13L74.39 10.13L86.11 36.59L78.32 36.59L69.18 13.80L72.13 13.80L62.98 36.59ZM78.51 31.45L61.73 31.45L63.66 25.93L76.59 25.93L78.51 31.45ZM108.34 36.59L88.23 36.59L88.23 10.13L95.71 10.13L95.71 30.66L108.34 30.66L108.34 36.59ZM129.77 36.59L122.29 36.59L122.29 10.13L143.04 10.13L143.04 15.91L129.77 15.91L129.77 36.59ZM141.45 27.52L129.24 27.52L129.24 21.74L141.45 21.74L141.45 27.52ZM154.04 36.59L146.56 36.59L146.56 10.13L158.39 10.13Q164.17 10.13 167.29 12.76Q170.41 15.39 170.41 19.92L170.41 19.92Q170.41 22.91 168.97 25.08Q167.54 27.25 164.91 28.41Q162.28 29.56 158.65 29.56L158.65 29.56L150.71 29.56L154.04 26.42L154.04 36.59ZM170.94 36.59L162.92 36.59L156.35 26.95L164.32 26.95L170.94 36.59ZM154.04 12.59L154.04 27.22L150.71 23.78L158.20 23.78Q160.54 23.78 161.70 22.76Q162.85 21.74 162.85 19.92L162.85 19.92Q162.85 18.07 161.70 17.05Q160.54 16.03 158.20 16.03L158.20 16.03L150.71 16.03L154.04 12.59ZM187.87 37.12L187.87 37.12Q184.70 37.12 182.01 36.10Q179.33 35.08 177.35 33.21Q175.36 31.34 174.26 28.84Q173.17 26.35 173.17 23.36L173.17 23.36Q173.17 20.37 174.26 17.88Q175.36 15.39 177.35 13.51Q179.33 11.64 182.01 10.62Q184.70 9.60 187.87 9.60L187.87 9.60Q191.09 9.60 193.75 10.62Q196.42 11.64 198.38 13.51Q200.35 15.39 201.46 17.88Q202.58 20.37 202.58 23.36L202.58 23.36Q202.58 26.35 201.46 28.86Q200.35 31.38 198.38 33.23Q196.42 35.08 193.75 36.10Q191.09 37.12 187.87 37.12ZM187.87 30.92L187.87 30.92Q189.39 30.92 190.69 30.39Q191.99 29.86 192.96 28.86Q193.92 27.86 194.47 26.46Q195.02 25.06 195.02 23.36L195.02 23.36Q195.02 21.62 194.47 20.24Q193.92 18.86 192.96 17.86Q191.99 16.86 190.69 16.33Q189.39 15.80 187.87 15.80L187.87 15.80Q186.36 15.80 185.06 16.33Q183.75 16.86 182.79 17.86Q181.83 18.86 181.28 20.24Q180.73 21.62 180.73 23.36L180.73 23.36Q180.73 25.06 181.28 26.46Q181.83 27.86 182.79 28.86Q183.75 29.86 185.06 30.39Q186.36 30.92 187.87 30.92ZM213.43 36.59L206.51 36.59L206.51 10.13L212.67 10.13L223.63 28.12L220.38 28.12L231.04 10.13L237.20 10.13L237.28 36.59L230.40 36.59L230.32 20.60L231.50 20.60L223.52 33.98L220.19 33.98L211.99 20.60L213.43 20.60L213.43 36.59ZM261.06 36.59L253.57 36.59L253.57 10.13L261.06 10.13L261.06 36.59ZM279.50 36.59L272.02 36.59L272.02 16.07L263.89 16.07L263.89 10.13L287.59 10.13L287.59 16.07L279.50 16.07L279.50 36.59Z" transform="translate(0, 0)"></path></g></svg></g></svg>